<svg xmlns="http://www.w3.org/2000/svg" version="1.1" xmlns:xlink="http://www.w3.org/1999/xlink" xmlns:svgjs="http://svgjs.dev/svgjs" viewBox="0 0 1422 800" width="1422" height="800" opacity="0.73"><g transform="scale(1.3) rotate(14) translate(0 0) skewX(0) skewY(0)" transform-origin="711 400"><rect width="2844" height="1600" x="-711" y="-400" fill="url(#rrreplicate-pattern1)"></rect><rect width="2844" height="1600" x="-711" y="-400" fill="url(#rrreplicate-pattern2)"></rect><rect width="2844" height="1600" x="-711" y="-400" fill="url(#rrreplicate-pattern3)"></rect></g><defs><pattern id="rrreplicate-pattern1" width="418" height="418" patternUnits="userSpaceOnUse" patternTransform="rotate(30)" stroke-width="0.4" fill="none" stroke="#7c8cce" stroke-opacity="0.92">
      <line x1="52.25" y1="0" x2="52.25" y2="418"></line><line x1="156.75" y1="0" x2="156.75" y2="418"></line><line x1="261.25" y1="0" x2="261.25" y2="418"></line><line x1="365.75" y1="0" x2="365.75" y2="418"></line>
      </pattern><pattern id="rrreplicate-pattern2" width="418" height="418" patternUnits="userSpaceOnUse" patternTransform="rotate(29)" stroke-opacity="0.4" stroke-width="0.2" fill="none" stroke="#238968">
      <line x1="104.5" y1="0" x2="104.5" y2="418"></line><line x1="313.5" y1="0" x2="313.5" y2="418"></line>
      </pattern><pattern id="rrreplicate-pattern3" width="418" height="418" patternUnits="userSpaceOnUse" patternTransform="rotate(115)" stroke-opacity="1" stroke-width="1.2" fill="none" stroke="#ffcb00">
      <line x1="52.25" y1="0" x2="52.25" y2="418"></line><line x1="156.75" y1="0" x2="156.75" y2="418"></line><line x1="261.25" y1="0" x2="261.25" y2="418"></line><line x1="365.75" y1="0" x2="365.75" y2="418"></line>
      </pattern></defs></svg>